<svg viewBox="0 0 600 460" xmlns="http://www.w3.org/2000/svg">
  <rect width="100%" height="100%" fill="transparent"/>
  <g id="grid">
    <line x1="300.0" y1="90.0" x2="300.0" y2="330.0" stroke="rgba(255,255,255,0.18)" stroke-width="0.8" stroke-dasharray="3 4"/>
    <line x1="300.0" y1="90.0" x2="420.0" y2="297.8" stroke="rgba(255,255,255,0.10)" stroke-width="0.8" stroke-dasharray="2 4"/>
    <line x1="300.0" y1="90.0" x2="180.0" y2="297.8" stroke="rgba(255,255,255,0.10)" stroke-width="0.8" stroke-dasharray="2 4"/>
    <line x1="300.0" y1="90.0" x2="507.8" y2="210.0" stroke="rgba(255,255,255,0.10)" stroke-width="0.8" stroke-dasharray="2 4"/>
    <line x1="300.0" y1="90.0" x2="92.2" y2="210.0" stroke="rgba(255,255,255,0.10)" stroke-width="0.8" stroke-dasharray="2 4"/>
    <line x1="300.0" y1="90.0" x2="540.0" y2="90.0" stroke="rgba(255,255,255,0.10)" stroke-width="0.8" stroke-dasharray="2 4"/>
    <line x1="300.0" y1="90.0" x2="60.0" y2="90.0" stroke="rgba(255,255,255,0.10)" stroke-width="0.8" stroke-dasharray="2 4"/>
    <circle cx="300.0" cy="90.0" r="60.0" fill="none" stroke="rgba(255,255,255,0.10)" stroke-width="0.8" stroke-dasharray="2 4"/>
    <circle cx="300.0" cy="90.0" r="120.0" fill="none" stroke="rgba(255,255,255,0.10)" stroke-width="0.8" stroke-dasharray="2 4"/>
    <circle cx="300.0" cy="90.0" r="180.0" fill="none" stroke="rgba(255,255,255,0.10)" stroke-width="0.8" stroke-dasharray="2 4"/>
    <circle cx="300.0" cy="90.0" r="240.0" fill="none" stroke="rgba(255,255,255,0.10)" stroke-width="0.8" stroke-dasharray="2 4"/>
  </g>
  <g id="curve">
    <polygon points="300.0,329.8 304.2,329.6 308.4,329.2 312.5,328.6 316.6,327.9 320.7,326.9 324.8,325.8 328.8,324.4 332.7,323.0 336.6,321.3 340.5,319.6 344.3,317.7 347.9,315.6 351.6,313.3 355.1,310.9 358.5,308.3 361.8,305.6 365.0,302.7 368.1,299.7 371.1,296.5 374.0,293.3 376.7,289.9 379.3,286.3 381.8,282.6 384.1,278.9 386.3,275.1 388.3,271.1 390.2,267.1 392.0,263.0 393.6,258.8 395.0,254.5 396.3,250.3 397.4,245.9 398.5,241.6 399.3,237.2 400.0,232.9 400.6,228.4 401.1,224.1 401.3,219.7 401.3,215.1 401.2,210.6 400.8,206.0 400.3,201.4 399.5,196.8 398.6,192.1 397.5,187.5 396.2,182.9 394.8,178.4 393.2,173.9 391.4,169.5 389.4,165.0 387.4,160.8 385.2,156.6 382.8,152.4 380.2,148.3 377.3,144.1 374.3,140.1 371.1,136.2 367.7,132.3 364.1,128.5 360.4,124.9 356.6,121.4 352.7,118.0 348.6,114.8 344.6,111.8 340.6,108.9 336.6,106.3 332.8,103.9 329.1,101.8 325.7,99.9 322.2,98.1 319.4,96.7 317.0,95.5 314.9,94.6 313.1,93.7 311.5,93.1 310.3,92.6 309.3,92.1 308.6,91.8 308.0,91.6 307.2,91.3 306.5,91.0 305.8,90.8 305.2,90.6 304.4,90.5 303.8,90.3 303.2,90.2 302.6,90.1 302.4,90.1 302.1,90.0 302.1,90.0 297.9,90.0 297.9,90.0 297.6,90.1 297.4,90.1 296.8,90.2 296.2,90.3 295.6,90.5 294.8,90.6 294.2,90.8 293.5,91.0 292.8,91.3 292.0,91.6 291.4,91.8 290.7,92.1 289.7,92.6 288.5,93.1 286.9,93.7 285.1,94.6 283.0,95.5 280.6,96.7 277.8,98.1 274.3,99.9 270.9,101.8 267.2,103.9 263.4,106.3 259.4,108.9 255.4,111.8 251.4,114.8 247.3,118.0 243.4,121.4 239.6,124.9 235.9,128.5 232.3,132.3 228.9,136.2 225.7,140.1 222.7,144.1 219.8,148.3 217.2,152.4 214.8,156.6 212.6,160.8 210.6,165.0 208.6,169.5 206.8,173.9 205.2,178.4 203.8,182.9 202.5,187.5 201.4,192.1 200.5,196.8 199.7,201.4 199.2,206.0 198.8,210.6 198.7,215.1 198.7,219.7 198.9,224.1 199.4,228.4 200.0,232.9 200.7,237.2 201.5,241.6 202.6,245.9 203.7,250.3 205.0,254.5 206.4,258.8 208.0,263.0 209.8,267.1 211.7,271.1 213.7,275.1 215.9,278.9 218.2,282.6 220.7,286.3 223.3,289.9 226.0,293.3 228.9,296.5 231.9,299.7 235.0,302.7 238.2,305.6 241.5,308.3 244.9,310.9 248.4,313.3 252.1,315.6 255.7,317.7 259.5,319.6 263.4,321.3 267.3,323.0 271.2,324.4 275.2,325.8 279.3,326.9 283.4,327.9 287.5,328.6 291.6,329.2 295.8,329.6 300.0,329.8" fill="rgba(243,39,64,0.18)" stroke="#F32740" stroke-width="1.8" stroke-linejoin="round"/>
  </g>
  <rect x="278" y="76" width="44" height="14" rx="2" fill="rgba(255,255,255,0.18)" stroke="rgba(255,255,255,0.5)" stroke-width="1"/>
  <g id="labels">
    <text x="426.5" y="309.1" font-size="9" font-family="JetBrains Mono, monospace" fill="rgba(255,255,255,0.4)" text-anchor="middle" dominant-baseline="middle">30°</text>
    <text x="173.5" y="309.1" font-size="9" font-family="JetBrains Mono, monospace" fill="rgba(255,255,255,0.4)" text-anchor="middle" dominant-baseline="middle">30°</text>
    <text x="519.1" y="216.5" font-size="9" font-family="JetBrains Mono, monospace" fill="rgba(255,255,255,0.4)" text-anchor="middle" dominant-baseline="middle">60°</text>
    <text x="80.9" y="216.5" font-size="9" font-family="JetBrains Mono, monospace" fill="rgba(255,255,255,0.4)" text-anchor="middle" dominant-baseline="middle">60°</text>
    <text x="553.0" y="90.0" font-size="9" font-family="JetBrains Mono, monospace" fill="rgba(255,255,255,0.4)" text-anchor="middle" dominant-baseline="middle">90°</text>
    <text x="47.0" y="90.0" font-size="9" font-family="JetBrains Mono, monospace" fill="rgba(255,255,255,0.4)" text-anchor="middle" dominant-baseline="middle">90°</text>
    <text x="304" y="150.0" font-size="8" font-family="JetBrains Mono, monospace" fill="rgba(255,255,255,0.35)">435cd</text>
    <text x="304" y="210.0" font-size="8" font-family="JetBrains Mono, monospace" fill="rgba(255,255,255,0.35)">870cd</text>
    <text x="304" y="270.0" font-size="8" font-family="JetBrains Mono, monospace" fill="rgba(255,255,255,0.35)">1306cd</text>
    <text x="304" y="330.0" font-size="8" font-family="JetBrains Mono, monospace" fill="rgba(255,255,255,0.35)">1741cd</text>
  </g>
  <g font-family="JetBrains Mono, monospace">
    <text x="300" y="380" text-anchor="middle" fill="#F32740" font-size="13" font-weight="700" letter-spacing="1.2">LCDL10 · 38W · 2700K</text>
    <text x="300" y="402" text-anchor="middle" fill="rgba(255,255,255,0.55)" font-size="10">PEAK 1741 cd · TOTAL 4670 lm · 35.0W input · 133 lm/W</text>
  </g>
</svg>