<?xml version="1.0" encoding="UTF-8"?>
<svg xmlns="http://www.w3.org/2000/svg" version="1.1" viewBox="0 0 631 322">
  <defs>
    <style>
      .cls-1 {
        fill: #ff5a6d;
      }

      .cls-2 {
        fill: #a6a8ab;
      }
    </style>
  </defs>
  <!-- Generator: Adobe Illustrator 28.6.0, SVG Export Plug-In . SVG Version: 1.2.0 Build 709)  -->
  <g>
    <g id="Layer_1">
      <g>
        <g>
          <path class="cls-2" d="M506,175.4h-247.7v-29.6h247.7v29.6ZM258.8,174.9h246.6v-28.6h-246.6v28.6Z"/>
          <path class="cls-2" d="M238.5,175.4h-21.2v-29.6h21.2v29.6ZM217.8,174.9h20.2v-28.6h-20.2v28.6Z"/>
          <path class="cls-2" d="M232.1,146.3h-8.5v-1.6h8.5v1.6ZM224.1,145.8h7.5v-.6h-7.5v.6Z"/>
          <path class="cls-2" d="M231,145.2h-6.3v-1.6h6.3v1.6ZM225.2,144.7h5.3v-.6h-5.3v.6Z"/>
          <path class="cls-2" d="M276.4,146.3h-8.5v-1.6h8.5v1.6ZM268.4,145.8h7.5v-.6h-7.5v.6Z"/>
          <path class="cls-2" d="M275.3,145.2h-6.3v-1.6h6.3v1.6ZM269.5,144.7h5.3v-.6h-5.3v.6Z"/>
        </g>
        <g>
          <polygon class="cls-1" points="497 122.8 505.7 124.3 497 125.8 497 122.8"/>
          <polygon class="cls-1" points="267.3 126.1 258.6 124.6 267.3 123.1 267.3 126.1"/>
          <polygon class="cls-1" points="263.9 124.8 263.9 124.5 498.2 124.1 498.2 124.4 263.9 124.8"/>
        </g>
        <rect class="cls-1" x="505.6" y="119.2" width=".3" height="33.1"/>
        <rect class="cls-1" x="258.4" y="119.2" width=".3" height="33.1"/>
        <g>
          <polygon class="cls-1" points="200.8 154.7 202.3 146 203.8 154.7 200.8 154.7"/>
          <polygon class="cls-1" points="204.1 166.6 202.6 175.3 201.1 166.6 204.1 166.6"/>
          <rect class="cls-1" x="202.3" y="151.4" width=".3" height="18.6" transform="translate(-3.4 4.4) rotate(-1.2)"/>
        </g>
        <rect class="cls-1" x="197.2" y="145.9" width="21.8" height=".3"/>
        <rect class="cls-1" x="197.2" y="175.1" width="21.8" height=".3"/>
        <g>
          <polygon class="cls-1" points="223.5 190.5 217 189.3 223.5 188.2 223.5 190.5"/>
          <polygon class="cls-1" points="231.6 187.9 238.2 189 231.6 190.2 231.6 187.9"/>
          <polygon class="cls-1" points="222.4 189.6 222.4 189.3 232.9 188.9 232.9 189.2 222.4 189.6"/>
        </g>
        <rect class="cls-1" x="238" y="172.7" width=".3" height="21.8"/>
        <rect class="cls-1" x="217.4" y="172.7" width=".3" height="21.8"/>
        <g>
          <path class="cls-1" d="M363.8,114.5c.6-.5,1.1-.9,1.5-1.3.5-.4.9-.7,1.2-1.1.3-.3.6-.7.8-1,.2-.3.3-.7.3-1.1s-.1-.7-.3-.9c-.2-.2-.5-.3-.9-.3s-.8,0-1,.3c-.2.2-.4.5-.5,1l-1.2-.2c0-.3.2-.6.3-.8.1-.3.3-.5.5-.7.2-.2.5-.4.8-.5.3-.1.7-.2,1.2-.2.8,0,1.4.2,1.9.6.4.4.6,1,.6,1.7s0,.8-.2,1.2c-.2.3-.4.7-.7,1-.3.3-.6.7-1,1-.4.4-.9.8-1.4,1.2h3.4l-.2,1.1h-5.1v-1Z"/>
          <path class="cls-1" d="M371.5,113.3c0,.5.2.9.4,1.1.2.2.6.3,1.1.3s.8-.1,1-.3c.2-.2.4-.5.4-1s-.1-.7-.3-.9c-.2-.2-.6-.3-1-.3h-.8v-1.1h.9c.6,0,1-.3,1.1-.8,0-.2,0-.3,0-.5,0-.3-.2-.5-.4-.6-.2-.1-.5-.2-.8-.2s-.8,0-1,.3c-.2.2-.4.5-.5.9l-1.2-.2c0-.3.1-.6.3-.8.1-.3.3-.5.5-.7.2-.2.5-.3.8-.5s.7-.2,1.1-.2.8,0,1.1.2c.3.1.6.3.8.4.2.2.4.4.5.6,0,.2.1.5.1.8,0,.8-.4,1.4-1.1,1.8.4.2.8.4.9.8.2.3.3.7.3,1.1,0,.7-.2,1.3-.7,1.8-.4.4-1.1.6-2,.6s-1,0-1.3-.2-.6-.3-.8-.6-.4-.5-.5-.8-.1-.6-.2-.9h1.3Z"/>
          <path class="cls-1" d="M378.2,114v1.5h-1.3v-1.5h1.3Z"/>
          <path class="cls-1" d="M383.4,109.6c0-.1-.1-.2-.1-.3,0,0-.1-.2-.2-.2,0,0-.1-.1-.2-.2,0,0-.2,0-.3,0-.1,0-.3,0-.5,0-.5,0-.8.3-1.1.7-.2.4-.4,1.1-.4,1.9.2-.3.5-.5.8-.6s.7-.2,1-.2c.4,0,.7,0,1,.2.3.1.5.3.7.5s.3.5.4.8c0,.3.1.7.1,1s0,.8-.2,1.1c-.1.3-.3.6-.6.8-.2.2-.5.4-.8.5-.3.1-.7.2-1,.2-.5,0-1-.1-1.3-.3-.3-.2-.6-.5-.8-.8-.2-.3-.3-.7-.4-1.1,0-.4-.1-.8-.1-1.2,0-.8,0-1.6.2-2.1.2-.6.4-1,.6-1.4s.6-.6.9-.8.7-.2,1.1-.2c.7,0,1.3.1,1.6.5.4.3.6.8.7,1.4l-1.2.2h0ZM382.1,114.7c.4,0,.8-.1,1-.4.3-.3.4-.7.4-1.2s-.1-.8-.3-1.1c-.2-.3-.6-.4-1-.4s-.4,0-.6,0c-.2,0-.3.2-.5.3-.1.1-.2.3-.3.5s0,.4,0,.7c0,.2,0,.4,0,.6s.1.3.3.5c.1.1.3.3.4.3s.4.1.6.1Z"/>
          <path class="cls-1" d="M387.2,107.7l-.6,2.6h-.9l.3-2.6h1.2ZM389,107.7l-.6,2.6h-.9l.3-2.6h1.2Z"/>
          <path class="cls-1" d="M392.7,114.9h5v.6h-5v-.6ZM394.9,112.1h-2.2v-.6h2.2v-2.4h.6v2.4h2.2v.6h-2.2v2.4h-.6v-2.4Z"/>
          <path class="cls-1" d="M404.2,115.7c-.4,0-.8,0-1.2-.2-.3-.2-.6-.4-.9-.7-.2-.3-.4-.7-.6-1.2-.1-.5-.2-1.1-.2-1.8,0-1.3.2-2.3.7-3,.5-.7,1.2-1,2.1-1s1.6.3,2.1,1c.5.6.7,1.7.7,3s0,1.3-.2,1.8c-.1.5-.3.9-.6,1.2-.2.3-.5.6-.9.7-.4.2-.8.2-1.2.2ZM404.2,114.6c.3,0,.5,0,.7-.2.2-.1.4-.3.5-.6.1-.2.2-.6.3-.9,0-.4,0-.8,0-1.2s0-.8,0-1.2c0-.4-.1-.7-.3-.9-.1-.3-.3-.4-.5-.6-.2-.1-.4-.2-.7-.2s-.5,0-.7.2c-.2.1-.3.3-.5.6-.1.3-.2.6-.3.9,0,.4,0,.8,0,1.2,0,.9.1,1.7.3,2.2.2.5.6.7,1.2.7Z"/>
          <path class="cls-1" d="M409.4,114v1.5h-1.3v-1.5h1.3Z"/>
          <path class="cls-1" d="M410.6,114.5c.6-.5,1.1-.9,1.5-1.3.5-.4.9-.7,1.2-1.1.3-.3.6-.7.8-1,.2-.3.3-.7.3-1.1s-.1-.7-.3-.9c-.2-.2-.5-.3-.9-.3s-.8,0-1,.3c-.2.2-.4.5-.5,1l-1.2-.2c0-.3.2-.6.3-.8.1-.3.3-.5.5-.7.2-.2.5-.4.8-.5.3-.1.7-.2,1.2-.2.8,0,1.4.2,1.9.6.4.4.6,1,.6,1.7s0,.8-.2,1.2c-.2.3-.4.7-.7,1-.3.3-.6.7-1,1-.4.4-.9.8-1.4,1.2h3.4l-.2,1.1h-5.1v-1Z"/>
        </g>
        <g>
          <path class="cls-1" d="M197.8,208.3l-.5-.9,2.4-1.5h1.1v7.6h-1.3v-6.2l-1.6,1Z"/>
          <path class="cls-1" d="M204.7,211.9v1.5h-1.3v-1.5h1.3Z"/>
          <path class="cls-1" d="M207.1,211.7c0,.3.2.6.4.7.2.2.5.2.9.2s.9-.2,1.2-.6c.2-.4.4-1.1.4-2-.5.6-1.1.9-1.8.9s-1.4-.2-1.8-.7c-.4-.5-.6-1.1-.6-1.8s0-.7.2-1c.1-.3.3-.6.5-.8s.5-.4.8-.5c.3-.1.7-.2,1.1-.2s1,.1,1.3.3.6.5.8.9c.2.4.3.7.4,1.2,0,.4.1.8.1,1.2,0,.8,0,1.5-.2,2-.1.6-.3,1-.5,1.4s-.5.6-.9.8c-.3.2-.7.2-1.2.2-.8,0-1.4-.2-1.8-.5-.4-.3-.6-.8-.7-1.5h1.2ZM208.4,209.8c.2,0,.4,0,.6,0s.3-.2.5-.3.2-.3.3-.5.1-.4.1-.7c0-.2,0-.4-.1-.6,0-.2-.2-.4-.3-.5-.1-.1-.3-.3-.4-.3-.2,0-.4-.1-.6-.1-.4,0-.8.1-1,.4s-.4.7-.4,1.2,0,.4,0,.6c0,.2.1.3.2.5.1.1.2.2.4.3.2,0,.4.1.6.1Z"/>
          <path class="cls-1" d="M216.5,207.5c0-.1-.1-.2-.1-.3,0,0-.1-.2-.2-.2,0,0-.1-.1-.2-.2s-.2,0-.3,0c-.1,0-.3,0-.5,0-.5,0-.8.3-1.1.7-.2.4-.4,1.1-.4,1.9.2-.3.5-.5.8-.6s.7-.2,1-.2c.4,0,.7,0,1,.2s.5.3.7.5.3.5.4.8c0,.3.1.7.1,1s0,.8-.2,1.1c-.1.3-.3.6-.6.8-.2.2-.5.4-.8.5-.3.1-.7.2-1,.2-.5,0-1-.1-1.3-.3s-.6-.5-.8-.8c-.2-.3-.3-.7-.4-1.1s-.1-.8-.1-1.2c0-.8,0-1.6.2-2.1.2-.6.4-1,.6-1.4s.6-.6.9-.8c.4-.2.7-.2,1.1-.2.7,0,1.3.2,1.6.5.4.3.6.8.7,1.4l-1.2.2h0ZM215.1,212.6c.4,0,.8-.1,1-.4.3-.3.4-.7.4-1.2s-.1-.8-.3-1.1c-.2-.3-.6-.4-1-.4s-.4,0-.6,0c-.2,0-.3.2-.5.3-.1.1-.2.3-.3.5,0,.2,0,.4,0,.7,0,.2,0,.4,0,.6s.1.3.3.5c.1.1.3.3.4.3.2,0,.4.1.6.1Z"/>
          <path class="cls-1" d="M220.2,205.6l-.6,2.6h-.9l.3-2.6h1.2ZM222.1,205.6l-.6,2.6h-.9l.3-2.6h1.2Z"/>
          <path class="cls-1" d="M225.7,212.9h5v.6h-5v-.6ZM228,210h-2.2v-.6h2.2v-2.4h.6v2.4h2.2v.6h-2.2v2.4h-.6v-2.4Z"/>
          <path class="cls-1" d="M237.2,213.7c-.4,0-.8,0-1.2-.2s-.6-.4-.9-.7c-.2-.3-.4-.7-.6-1.2-.1-.5-.2-1.1-.2-1.8,0-1.3.2-2.3.7-3,.5-.7,1.2-1,2.1-1s1.6.3,2.1,1,.7,1.7.7,3,0,1.3-.2,1.8c-.1.5-.3.9-.6,1.2s-.5.6-.9.7c-.4.2-.8.2-1.2.2ZM237.2,212.6c.3,0,.5,0,.7-.2.2-.1.4-.3.5-.6.1-.2.2-.6.3-.9,0-.4,0-.8,0-1.2s0-.8,0-1.2c0-.4-.1-.7-.3-.9-.1-.3-.3-.4-.5-.6-.2-.1-.4-.2-.7-.2s-.5,0-.7.2c-.2.1-.3.3-.5.6s-.2.6-.3.9c0,.4,0,.8,0,1.2,0,.9.1,1.7.3,2.2.2.5.6.7,1.2.7Z"/>
          <path class="cls-1" d="M242.4,211.9v1.5h-1.3v-1.5h1.3Z"/>
          <path class="cls-1" d="M244.5,208.3l-.5-.9,2.4-1.5h1.1v7.6h-1.3v-6.2l-1.6,1Z"/>
          <path class="cls-1" d="M250.1,212.5c.6-.5,1.1-.9,1.5-1.3.5-.4.9-.7,1.2-1.1.3-.3.6-.7.8-1,.2-.3.3-.7.3-1.1s-.1-.7-.3-.9c-.2-.2-.5-.3-.9-.3s-.8,0-1,.3c-.2.2-.4.5-.5,1l-1.2-.2c0-.3.2-.6.3-.8s.3-.5.5-.7c.2-.2.5-.4.8-.5s.7-.2,1.2-.2c.8,0,1.4.2,1.9.6s.6,1,.6,1.7,0,.8-.2,1.2c-.2.3-.4.7-.7,1-.3.3-.6.7-1,1-.4.4-.9.8-1.4,1.2h3.4l-.2,1.1h-5.1v-1Z"/>
        </g>
        <g>
          <path class="cls-1" d="M125.6,165.6c.6-.5,1.1-.9,1.5-1.3.5-.4.9-.7,1.2-1.1.3-.3.6-.7.8-1,.2-.3.3-.7.3-1.1s-.1-.7-.3-.9c-.2-.2-.5-.3-.9-.3s-.8,0-1,.3c-.2.2-.4.5-.5,1l-1.2-.2c0-.3.2-.6.3-.8.1-.3.3-.5.5-.7.2-.2.5-.4.8-.5.3-.1.7-.2,1.2-.2.8,0,1.4.2,1.9.6.4.4.6,1,.6,1.7s0,.8-.2,1.2c-.2.3-.4.7-.7,1-.3.3-.6.7-1,1-.4.4-.9.8-1.4,1.2h3.4l-.2,1.1h-5.1v-1Z"/>
          <path class="cls-1" d="M133.4,165.1v1.5h-1.3v-1.5h1.3Z"/>
          <path class="cls-1" d="M135.9,164.8c0,.3.2.6.4.7.2.2.5.2.9.2s.9-.2,1.2-.6c.2-.4.4-1.1.4-2-.5.6-1.1.9-1.8.9s-1.4-.2-1.8-.7c-.4-.5-.6-1.1-.6-1.8s0-.7.2-1c.1-.3.3-.6.5-.8.2-.2.5-.4.8-.5.3-.1.7-.2,1.1-.2s1,.1,1.3.3c.3.2.6.5.8.9s.3.7.4,1.2c0,.4.1.8.1,1.2,0,.8,0,1.5-.2,2-.1.6-.3,1-.5,1.4s-.5.6-.9.8c-.3.2-.7.2-1.2.2-.8,0-1.4-.2-1.8-.5-.4-.3-.6-.8-.7-1.5h1.2ZM137.1,162.9c.2,0,.4,0,.6,0s.3-.2.5-.3.2-.3.3-.5.1-.4.1-.7c0-.2,0-.4-.1-.6,0-.2-.2-.4-.3-.5-.1-.1-.3-.3-.4-.3-.2,0-.4-.1-.6-.1-.4,0-.8.1-1,.4-.3.3-.4.7-.4,1.2s0,.4,0,.6c0,.2.1.3.2.5.1.1.2.2.4.3.2,0,.4.1.6.1Z"/>
          <path class="cls-1" d="M142.4,164.5c0,.2,0,.4.1.5,0,.2.1.3.3.4.1,0,.2.2.4.2.2,0,.4,0,.6,0,.4,0,.7-.1,1-.4.2-.2.4-.6.4-1.2s-.1-.8-.3-1.1-.6-.4-1-.4-.6,0-.8.1c-.2,0-.4.2-.6.4h-1.1l.4-4.3h4.3v1.1h-3.2l-.2,2c.2-.1.4-.2.7-.3.3,0,.5-.1.8-.1.4,0,.8,0,1.1.2.3.1.5.3.7.6.2.2.3.5.4.8,0,.3.1.6.1.9,0,.5,0,.9-.2,1.2-.1.3-.3.6-.5.8-.2.2-.5.4-.8.5-.3.1-.6.2-1,.2-.8,0-1.5-.2-1.9-.6-.4-.4-.7-.9-.8-1.7h1.2Z"/>
          <path class="cls-1" d="M149,158.8l-.6,2.6h-.9l.3-2.6h1.2ZM150.8,158.8l-.6,2.6h-.9l.3-2.6h1.2Z"/>
          <path class="cls-1" d="M154.5,166h5v.6h-5v-.6ZM156.7,163.1h-2.2v-.6h2.2v-2.4h.6v2.4h2.2v.6h-2.2v2.4h-.6v-2.4Z"/>
          <path class="cls-1" d="M166,166.8c-.4,0-.8,0-1.2-.2s-.6-.4-.9-.7c-.2-.3-.4-.7-.6-1.2-.1-.5-.2-1.1-.2-1.8,0-1.3.2-2.3.7-3,.5-.7,1.2-1,2.1-1s1.6.3,2.1,1c.5.6.7,1.7.7,3s0,1.3-.2,1.8c-.1.5-.3.9-.6,1.2s-.5.6-.9.7c-.4.2-.8.2-1.2.2ZM166,165.7c.3,0,.5,0,.7-.2.2-.1.4-.3.5-.6.1-.2.2-.6.3-.9,0-.4,0-.8,0-1.2s0-.8,0-1.2c0-.4-.1-.7-.3-.9-.1-.3-.3-.4-.5-.6-.2-.1-.4-.2-.7-.2s-.5,0-.7.2c-.2.1-.3.3-.5.6-.1.3-.2.6-.3.9,0,.4,0,.8,0,1.2,0,.9.1,1.7.3,2.2.2.5.6.7,1.2.7Z"/>
          <path class="cls-1" d="M171.2,165.1v1.5h-1.3v-1.5h1.3Z"/>
          <path class="cls-1" d="M173.3,161.4l-.5-.9,2.4-1.5h1.1v7.6h-1.3v-6.2l-1.6,1Z"/>
          <path class="cls-1" d="M178.9,165.6c.6-.5,1.1-.9,1.5-1.3.5-.4.9-.7,1.2-1.1.3-.3.6-.7.8-1,.2-.3.3-.7.3-1.1s-.1-.7-.3-.9c-.2-.2-.5-.3-.9-.3s-.8,0-1,.3c-.2.2-.4.5-.5,1l-1.2-.2c0-.3.2-.6.3-.8.1-.3.3-.5.5-.7.2-.2.5-.4.8-.5.3-.1.7-.2,1.2-.2.8,0,1.4.2,1.9.6.4.4.6,1,.6,1.7s0,.8-.2,1.2c-.2.3-.4.7-.7,1-.3.3-.6.7-1,1-.4.4-.9.8-1.4,1.2h3.4l-.2,1.1h-5.1v-1Z"/>
        </g>
      </g>
    </g>
  </g>
</svg>