<svg viewBox="0 0 600 460" xmlns="http://www.w3.org/2000/svg" font-family="JetBrains Mono, monospace" font-size="9.5">
<text x="22" y="26" fill="#F32740" font-weight="700" letter-spacing="2">LDRS612 · 6″ · 12W · 4000K (STANDARD ★)</text>
<text x="22" y="42" fill="rgba(14,17,16,0.55)" font-size="8" letter-spacing="1.4">LUMINOUS INTENSITY DISTRIBUTION (cd) · IESNA LM-79 · EVERFINE GO-2000B</text>
<path d="M 232.0 64 A 68.0 68.0 0 0 1 368.0 64" fill="none" stroke="rgba(14,17,16,0.14)" stroke-width="0.7"/>
<path d="M 164.0 64 A 136.0 136.0 0 0 1 436.0 64" fill="none" stroke="rgba(14,17,16,0.14)" stroke-width="0.7"/>
<path d="M 96.0 64 A 204.0 204.0 0 0 1 504.0 64" fill="none" stroke="rgba(14,17,16,0.14)" stroke-width="0.7"/>
<path d="M 28.0 64 A 272.0 272.0 0 0 1 572.0 64" fill="none" stroke="rgba(14,17,16,0.14)" stroke-width="0.7"/>
<path d="M -40.0 64 A 340.0 340.0 0 0 1 640.0 64" fill="none" stroke="rgba(14,17,16,0.14)" stroke-width="0.7"/>
<line x1="300" y1="64" x2="388.0" y2="392.4" stroke="rgba(14,17,16,0.08)" stroke-width="0.6"/>
<line x1="300" y1="64" x2="212.0" y2="392.4" stroke="rgba(14,17,16,0.08)" stroke-width="0.6"/>
<line x1="300" y1="64" x2="470.0" y2="358.4" stroke="rgba(14,17,16,0.08)" stroke-width="0.6"/>
<line x1="300" y1="64" x2="130.0" y2="358.4" stroke="rgba(14,17,16,0.08)" stroke-width="0.6"/>
<line x1="300" y1="64" x2="540.4" y2="304.4" stroke="rgba(14,17,16,0.08)" stroke-width="0.6"/>
<line x1="300" y1="64" x2="59.6" y2="304.4" stroke="rgba(14,17,16,0.08)" stroke-width="0.6"/>
<line x1="300" y1="64" x2="594.4" y2="234.0" stroke="rgba(14,17,16,0.08)" stroke-width="0.6"/>
<line x1="300" y1="64" x2="5.6" y2="234.0" stroke="rgba(14,17,16,0.08)" stroke-width="0.6"/>
<line x1="300" y1="64" x2="628.4" y2="152.0" stroke="rgba(14,17,16,0.08)" stroke-width="0.6"/>
<line x1="300" y1="64" x2="-28.4" y2="152.0" stroke="rgba(14,17,16,0.08)" stroke-width="0.6"/>
<line x1="300" y1="64" x2="640.0" y2="64.0" stroke="rgba(14,17,16,0.08)" stroke-width="0.6"/>
<line x1="300" y1="64" x2="-40" y2="64" stroke="rgba(14,17,16,0.08)" stroke-width="0.6"/>
<line x1="300" y1="64" x2="300" y2="408" stroke="rgba(14,17,16,0.08)" stroke-width="0.6"/>
<text x="393.7" y="413.7" fill="rgba(14,17,16,0.42)" font-size="8" text-anchor="middle" dominant-baseline="middle">15°</text>
<text x="206.3" y="413.7" fill="rgba(14,17,16,0.42)" font-size="8" text-anchor="middle" dominant-baseline="middle">15°</text>
<text x="481.0" y="377.5" fill="rgba(14,17,16,0.42)" font-size="8" text-anchor="middle" dominant-baseline="middle">30°</text>
<text x="119.0" y="377.5" fill="rgba(14,17,16,0.42)" font-size="8" text-anchor="middle" dominant-baseline="middle">30°</text>
<text x="556.0" y="320.0" fill="rgba(14,17,16,0.42)" font-size="8" text-anchor="middle" dominant-baseline="middle">45°</text>
<text x="44.0" y="320.0" fill="rgba(14,17,16,0.42)" font-size="8" text-anchor="middle" dominant-baseline="middle">45°</text>
<text x="613.5" y="245.0" fill="rgba(14,17,16,0.42)" font-size="8" text-anchor="middle" dominant-baseline="middle">60°</text>
<text x="-13.5" y="245.0" fill="rgba(14,17,16,0.42)" font-size="8" text-anchor="middle" dominant-baseline="middle">60°</text>
<text x="649.7" y="157.7" fill="rgba(14,17,16,0.42)" font-size="8" text-anchor="middle" dominant-baseline="middle">75°</text>
<text x="-49.7" y="157.7" fill="rgba(14,17,16,0.42)" font-size="8" text-anchor="middle" dominant-baseline="middle">75°</text>
<text x="662.0" y="64.0" fill="rgba(14,17,16,0.42)" font-size="8" text-anchor="middle" dominant-baseline="middle">90°</text>
<text x="304" y="135.0" fill="rgba(14,17,16,0.42)" font-size="7.5" letter-spacing="0.5">75</text>
<text x="304" y="203.0" fill="rgba(14,17,16,0.42)" font-size="7.5" letter-spacing="0.5">155</text>
<text x="304" y="271.0" fill="rgba(14,17,16,0.42)" font-size="7.5" letter-spacing="0.5">230</text>
<text x="304" y="339.0" fill="rgba(14,17,16,0.42)" font-size="7.5" letter-spacing="0.5">305</text>
<text x="304" y="407.0" fill="rgba(14,17,16,0.42)" font-size="7.5" letter-spacing="0.5">385</text>
<path d="M 300.00 404.00 L 305.92 403.16 L 311.84 403.14 L 317.76 402.82 L 323.65 402.19 L 329.48 400.96 L 335.29 399.77 L 340.94 397.45 L 346.77 396.78 L 352.26 393.94 L 357.95 392.64 L 363.41 390.22 L 368.88 388.04 L 374.12 385.03 L 379.17 381.52 L 384.35 378.79 L 389.37 375.68 L 394.42 372.83 L 398.96 368.55 L 403.45 364.44 L 407.89 360.41 L 412.40 356.81 L 416.37 352.03 L 420.33 347.47 L 424.31 343.21 L 427.75 337.96 L 431.56 333.73 L 434.80 328.57 L 437.70 322.98 L 441.10 318.54 L 443.75 312.98 L 446.26 307.42 L 448.46 301.59 L 450.86 296.30 L 452.35 289.87 L 454.46 284.59 L 455.64 278.23 L 457.48 272.99 L 458.33 266.65 L 459.39 260.84 L 460.11 254.82 L 460.52 248.65 L 460.22 241.95 L 461.08 236.73 L 460.26 229.96 L 460.09 224.09 L 459.60 218.12 L 458.66 211.95 L 457.58 205.89 L 456.40 199.95 L 454.95 194.02 L 453.17 188.04 L 451.48 182.35 L 449.71 176.82 L 447.17 170.93 L 444.62 165.26 L 441.90 159.71 L 439.23 154.42 L 435.87 148.90 L 432.88 143.84 L 429.13 138.55 L 425.90 133.79 L 421.96 128.85 L 418.10 124.18 L 413.95 119.58 L 409.68 115.14 L 405.99 111.19 L 401.26 106.98 L 396.76 103.09 L 392.07 99.34 L 387.53 95.86 L 382.59 92.44 L 378.15 89.39 L 372.96 86.31 L 367.67 83.41 L 362.55 80.76 L 357.76 78.40 L 352.71 76.17 L 347.67 74.13 L 342.68 72.30 L 337.84 70.67 L 333.03 69.23 L 328.30 67.98 L 323.90 66.93 L 319.50 66.05 L 315.52 65.36 L 311.75 64.82 L 308.68 64.45 L 307.40 64.26 L 306.51 64.11 L 306.49 64.00 L 306.50 63.89 L 306.52 63.77 L 306.55 63.66 L 306.56 63.54 L 306.56 63.43 L 306.59 63.31 L 306.59 63.19 L 306.59 63.07 L 306.59 62.96 L 306.60 62.84 L 306.60 62.72 L 306.60 62.60 L 306.59 62.48 L 306.59 62.36 L 306.57 62.24 L 306.56 62.12 L 306.56 61.99 L 306.54 61.87 L 306.52 61.75 L 306.51 61.63 L 306.48 61.51 L 306.46 61.39 L 306.43 61.27 L 306.40 61.15 L 306.37 61.03 L 306.33 60.91 L 306.30 60.79 L 306.27 60.67 L 306.21 60.56 L 306.17 60.44 L 306.13 60.32 L 306.07 60.21 L 306.03 60.08 L 305.97 59.97 L 305.92 59.85 L 305.86 59.75 L 305.81 59.62 L 305.74 59.52 L 305.67 59.41 L 305.61 59.30 L 305.54 59.19 L 305.48 59.06 L 305.40 58.96 L 305.33 58.85 L 305.26 58.74 L 305.19 58.62 L 305.11 58.52 L 305.03 58.42 L 304.95 58.30 L 304.88 58.19 L 304.80 58.08 L 304.71 57.97 L 304.62 57.87 L 304.53 57.77 L 304.44 57.66 L 304.34 57.56 L 304.25 57.45 L 304.15 57.36 L 304.05 57.26 L 303.94 57.17 L 303.84 57.07 L 303.74 56.97 L 303.63 56.87 L 303.52 56.78 L 303.41 56.69 L 303.29 56.61 L 303.17 56.52 L 303.06 56.43 L 302.94 56.35 L 302.82 56.26 L 302.69 56.20 L 302.56 56.12 L 302.43 56.05 L 302.30 55.97 L 302.17 55.91 L 302.03 55.86 L 301.90 55.78 L 301.76 55.72 L 301.62 55.68 L 301.48 55.61 L 301.34 55.57 L 301.19 55.52 L 301.05 55.47 L 300.90 55.44 L 300.75 55.41 L 300.60 55.37 L 300.45 55.35 L 300.30 55.33 L 300.15 55.31 L 300.00 55.31 L 300.00 55.31 L 299.85 55.31 L 299.70 55.33 L 299.55 55.35 L 299.40 55.37 L 299.25 55.41 L 299.10 55.44 L 298.95 55.47 L 298.81 55.52 L 298.66 55.57 L 298.52 55.61 L 298.38 55.68 L 298.24 55.72 L 298.10 55.78 L 297.97 55.86 L 297.83 55.91 L 297.70 55.97 L 297.57 56.05 L 297.44 56.12 L 297.31 56.20 L 297.18 56.26 L 297.06 56.35 L 296.94 56.43 L 296.83 56.52 L 296.71 56.61 L 296.59 56.69 L 296.48 56.78 L 296.37 56.87 L 296.26 56.97 L 296.16 57.07 L 296.06 57.17 L 295.95 57.26 L 295.85 57.36 L 295.75 57.45 L 295.66 57.56 L 295.56 57.66 L 295.47 57.77 L 295.38 57.87 L 295.29 57.97 L 295.20 58.08 L 295.12 58.19 L 295.05 58.30 L 294.97 58.42 L 294.89 58.52 L 294.81 58.62 L 294.74 58.74 L 294.67 58.85 L 294.60 58.96 L 294.52 59.06 L 294.46 59.19 L 294.39 59.30 L 294.33 59.41 L 294.26 59.52 L 294.19 59.62 L 294.14 59.75 L 294.08 59.85 L 294.03 59.97 L 293.97 60.08 L 293.93 60.21 L 293.87 60.32 L 293.83 60.44 L 293.79 60.56 L 293.73 60.67 L 293.70 60.79 L 293.67 60.91 L 293.63 61.03 L 293.60 61.15 L 293.57 61.27 L 293.54 61.39 L 293.52 61.51 L 293.49 61.63 L 293.48 61.75 L 293.46 61.87 L 293.44 61.99 L 293.44 62.12 L 293.43 62.24 L 293.41 62.36 L 293.41 62.48 L 293.40 62.60 L 293.40 62.72 L 293.40 62.84 L 293.41 62.96 L 293.41 63.07 L 293.41 63.19 L 293.41 63.31 L 293.44 63.43 L 293.44 63.54 L 293.45 63.66 L 293.48 63.77 L 293.50 63.89 L 293.51 64.00 L 293.49 64.11 L 292.60 64.26 L 291.32 64.45 L 288.25 64.82 L 284.48 65.36 L 280.50 66.05 L 276.10 66.93 L 271.70 67.98 L 266.97 69.23 L 262.16 70.67 L 257.32 72.30 L 252.33 74.13 L 247.29 76.17 L 242.24 78.40 L 237.45 80.76 L 232.33 83.41 L 227.04 86.31 L 221.85 89.39 L 217.41 92.44 L 212.47 95.86 L 207.93 99.34 L 203.24 103.09 L 198.74 106.98 L 194.01 111.19 L 190.32 115.14 L 186.05 119.58 L 181.90 124.18 L 178.04 128.85 L 174.10 133.79 L 170.87 138.55 L 167.12 143.84 L 164.13 148.90 L 160.77 154.42 L 158.10 159.71 L 155.38 165.26 L 152.83 170.93 L 150.29 176.82 L 148.52 182.35 L 146.83 188.04 L 145.05 194.02 L 143.60 199.95 L 142.42 205.89 L 141.34 211.95 L 140.40 218.12 L 139.91 224.09 L 139.74 229.96 L 138.92 236.73 L 139.78 241.95 L 139.48 248.65 L 139.89 254.82 L 140.61 260.84 L 141.67 266.65 L 142.52 272.99 L 144.36 278.23 L 145.54 284.59 L 147.65 289.87 L 149.14 296.30 L 151.54 301.59 L 153.74 307.42 L 156.25 312.98 L 158.90 318.54 L 162.30 322.98 L 165.20 328.57 L 168.44 333.73 L 172.25 337.96 L 175.69 343.21 L 179.67 347.47 L 183.63 352.03 L 187.60 356.81 L 192.11 360.41 L 196.55 364.44 L 201.04 368.55 L 205.58 372.83 L 210.63 375.68 L 215.65 378.79 L 220.83 381.52 L 225.88 385.03 L 231.12 388.04 L 236.59 390.22 L 242.05 392.64 L 247.74 393.94 L 253.23 396.78 L 259.06 397.45 L 264.71 399.77 L 270.52 400.96 L 276.35 402.19 L 282.24 402.82 L 288.16 403.14 L 294.08 403.16 L 300.00 404.00 Z" fill="rgba(243,39,64,0.08)" stroke="#F32740" stroke-width="2.2" stroke-linejoin="round" stroke-linecap="round"/>
<path d="M 300.00 404.00 L 305.93 403.89 L 311.85 403.25 L 317.77 403.01 L 323.64 402.08 L 329.51 401.25 L 335.25 399.34 L 341.05 398.33 L 346.76 396.70 L 352.40 394.83 L 357.95 392.64 L 363.53 390.85 L 368.86 387.95 L 374.25 385.63 L 379.41 382.50 L 384.44 379.15 L 389.47 376.02 L 394.37 372.68 L 399.24 369.43 L 403.71 365.18 L 408.05 360.86 L 412.60 357.32 L 416.85 353.22 L 420.85 348.71 L 424.67 344.01 L 428.57 339.71 L 431.64 333.91 L 435.26 329.46 L 438.30 324.11 L 441.54 319.34 L 444.24 313.83 L 446.93 308.53 L 449.22 302.80 L 451.71 297.62 L 453.67 291.82 L 455.02 285.39 L 456.97 280.05 L 458.51 274.36 L 459.41 268.03 L 460.46 262.15 L 461.18 256.08 L 461.71 250.02 L 462.09 244.01 L 462.18 237.92 L 462.15 231.91 L 461.68 225.68 L 461.28 219.74 L 460.27 213.45 L 459.67 207.76 L 457.87 201.23 L 456.67 195.46 L 454.82 189.37 L 453.51 183.93 L 451.19 177.93 L 449.13 172.35 L 446.81 166.80 L 444.01 161.14 L 441.23 155.72 L 438.31 150.43 L 434.93 145.08 L 430.72 139.47 L 426.35 134.04 L 422.59 129.18 L 418.70 124.48 L 414.95 120.06 L 410.94 115.73 L 406.78 111.54 L 402.54 107.53 L 398.01 103.60 L 393.55 99.91 L 389.16 96.45 L 384.39 93.06 L 379.78 89.92 L 374.99 86.93 L 370.35 84.17 L 365.55 81.56 L 360.64 79.12 L 355.72 76.86 L 350.64 74.76 L 345.71 72.89 L 340.64 71.17 L 335.64 69.64 L 330.78 68.33 L 326.01 67.19 L 321.49 66.26 L 317.01 65.49 L 312.95 64.91 L 309.01 64.47 L 307.33 64.26 L 306.01 64.10 L 305.70 64.00 L 305.74 63.90 L 305.77 63.80 L 305.80 63.70 L 305.83 63.59 L 305.86 63.49 L 305.88 63.38 L 305.91 63.27 L 305.94 63.17 L 305.95 63.06 L 305.97 62.95 L 305.98 62.84 L 306.01 62.72 L 306.01 62.61 L 306.02 62.50 L 306.03 62.38 L 306.04 62.27 L 306.04 62.15 L 306.04 62.04 L 306.05 61.92 L 306.04 61.80 L 306.04 61.68 L 306.04 61.56 L 306.02 61.44 L 306.01 61.32 L 306.00 61.20 L 305.98 61.08 L 305.97 60.96 L 305.94 60.84 L 305.92 60.72 L 305.90 60.60 L 305.87 60.48 L 305.83 60.36 L 305.79 60.24 L 305.76 60.12 L 305.71 60.00 L 305.68 59.88 L 305.63 59.76 L 305.58 59.64 L 305.53 59.52 L 305.48 59.41 L 305.43 59.28 L 305.36 59.17 L 305.31 59.05 L 305.25 58.93 L 305.19 58.81 L 305.12 58.70 L 305.05 58.58 L 304.98 58.47 L 304.91 58.36 L 304.83 58.24 L 304.76 58.13 L 304.67 58.02 L 304.60 57.90 L 304.51 57.80 L 304.42 57.69 L 304.33 57.58 L 304.24 57.47 L 304.14 57.37 L 304.04 57.27 L 303.95 57.16 L 303.85 57.06 L 303.74 56.96 L 303.64 56.86 L 303.52 56.77 L 303.41 56.69 L 303.30 56.58 L 303.18 56.50 L 303.07 56.41 L 302.95 56.33 L 302.83 56.24 L 302.70 56.15 L 302.57 56.09 L 302.44 56.00 L 302.31 55.94 L 302.18 55.87 L 302.05 55.79 L 301.91 55.74 L 301.77 55.68 L 301.63 55.62 L 301.49 55.56 L 301.34 55.52 L 301.20 55.48 L 301.05 55.44 L 300.91 55.38 L 300.76 55.36 L 300.61 55.34 L 300.46 55.31 L 300.30 55.30 L 300.15 55.29 L 300.00 55.31 L 300.00 55.31 L 299.85 55.29 L 299.70 55.30 L 299.54 55.31 L 299.39 55.34 L 299.24 55.36 L 299.09 55.38 L 298.95 55.44 L 298.80 55.48 L 298.66 55.52 L 298.51 55.56 L 298.37 55.62 L 298.23 55.68 L 298.09 55.74 L 297.95 55.79 L 297.82 55.87 L 297.69 55.94 L 297.56 56.00 L 297.43 56.09 L 297.30 56.15 L 297.17 56.24 L 297.05 56.33 L 296.93 56.41 L 296.82 56.50 L 296.70 56.58 L 296.59 56.69 L 296.48 56.77 L 296.36 56.86 L 296.26 56.96 L 296.15 57.06 L 296.05 57.16 L 295.96 57.27 L 295.86 57.37 L 295.76 57.47 L 295.67 57.58 L 295.58 57.69 L 295.49 57.80 L 295.40 57.90 L 295.33 58.02 L 295.24 58.13 L 295.17 58.24 L 295.09 58.36 L 295.02 58.47 L 294.95 58.58 L 294.88 58.70 L 294.81 58.81 L 294.75 58.93 L 294.69 59.05 L 294.64 59.17 L 294.57 59.28 L 294.52 59.41 L 294.47 59.52 L 294.42 59.64 L 294.37 59.76 L 294.32 59.88 L 294.29 60.00 L 294.24 60.12 L 294.21 60.24 L 294.17 60.36 L 294.13 60.48 L 294.10 60.60 L 294.08 60.72 L 294.06 60.84 L 294.03 60.96 L 294.02 61.08 L 294.00 61.20 L 293.99 61.32 L 293.98 61.44 L 293.96 61.56 L 293.96 61.68 L 293.96 61.80 L 293.95 61.92 L 293.96 62.04 L 293.96 62.15 L 293.96 62.27 L 293.97 62.38 L 293.98 62.50 L 293.99 62.61 L 293.99 62.72 L 294.02 62.84 L 294.03 62.95 L 294.05 63.06 L 294.06 63.17 L 294.09 63.27 L 294.12 63.38 L 294.14 63.49 L 294.17 63.59 L 294.20 63.70 L 294.23 63.80 L 294.26 63.90 L 294.30 64.00 L 293.99 64.10 L 292.67 64.26 L 290.99 64.47 L 287.05 64.91 L 282.99 65.49 L 278.51 66.26 L 273.99 67.19 L 269.22 68.33 L 264.36 69.64 L 259.36 71.17 L 254.29 72.89 L 249.36 74.76 L 244.28 76.86 L 239.36 79.12 L 234.45 81.56 L 229.65 84.17 L 225.01 86.93 L 220.22 89.92 L 215.61 93.06 L 210.84 96.45 L 206.45 99.91 L 201.99 103.60 L 197.46 107.53 L 193.22 111.54 L 189.06 115.73 L 185.05 120.06 L 181.30 124.48 L 177.41 129.18 L 173.65 134.04 L 169.28 139.47 L 165.07 145.08 L 161.69 150.43 L 158.77 155.72 L 155.99 161.14 L 153.19 166.80 L 150.87 172.35 L 148.81 177.93 L 146.49 183.93 L 145.18 189.37 L 143.33 195.46 L 142.13 201.23 L 140.33 207.76 L 139.73 213.45 L 138.72 219.74 L 138.32 225.68 L 137.85 231.91 L 137.82 237.92 L 137.91 244.01 L 138.29 250.02 L 138.82 256.08 L 139.54 262.15 L 140.59 268.03 L 141.49 274.36 L 143.03 280.05 L 144.98 285.39 L 146.33 291.82 L 148.29 297.62 L 150.78 302.80 L 153.07 308.53 L 155.76 313.83 L 158.46 319.34 L 161.70 324.11 L 164.74 329.46 L 168.36 333.91 L 171.43 339.71 L 175.33 344.01 L 179.15 348.71 L 183.15 353.22 L 187.40 357.32 L 191.95 360.86 L 196.29 365.18 L 200.76 369.43 L 205.63 372.68 L 210.53 376.02 L 215.56 379.15 L 220.59 382.50 L 225.75 385.63 L 231.14 387.95 L 236.47 390.85 L 242.05 392.64 L 247.60 394.83 L 253.24 396.70 L 258.95 398.33 L 264.75 399.34 L 270.49 401.25 L 276.36 402.08 L 282.23 403.01 L 288.15 403.25 L 294.07 403.89 L 300.00 404.00 Z" fill="none" stroke="#0E0E10" stroke-width="1.6" stroke-linejoin="round" stroke-linecap="round" stroke-dasharray="4 3"/>
<circle cx="300" cy="64" r="2.5" fill="#F32740"/>
<line x1="420" y1="26" x2="446" y2="26" stroke="#F32740" stroke-width="2.2"/>
<text x="452" y="29" fill="#0E0E10" font-size="9">C0 — C180</text>
<line x1="420" y1="42" x2="446" y2="42" stroke="#0E0E10" stroke-width="2.2" stroke-dasharray="4 3"/>
<text x="452" y="45" fill="#0E0E10" font-size="9">C90 — C270</text>
<rect x="230" y="411" width="140" height="40" rx="3" fill="rgba(243,39,64,0.10)" stroke="#F32740" stroke-width="0.6"/>
<text x="300" y="426" fill="rgba(14,17,16,0.55)" font-size="7.5" text-anchor="middle" letter-spacing="1.2">PEAK INTENSITY (NADIR)</text>
<text x="300" y="443" fill="#F32740" font-weight="700" font-size="14" text-anchor="middle">383 cd</text>
<text x="22" y="455" fill="rgba(14,17,16,0.55)" font-size="8" letter-spacing="1.2">TOTAL OUTPUT · 1,162 lm</text>
<text x="578" y="455" fill="rgba(14,17,16,0.55)" font-size="8" text-anchor="end" letter-spacing="0.6">LDRS612-R2S5/F 4000K.IES</text>
</svg>