<svg viewBox="0 0 700 700" xmlns="http://www.w3.org/2000/svg" aria-label="LWRL Waymark LWRL2 measured polar distribution · 30WW · 4000K · 1176 cd peak · 3630 lm total · 132.5 LM/W measured · LM-79 EVERFINE GO-2000B tested 2023-09-26 · WRAPAROUND/LINEAR AMBIENT luminaire category">
  <rect width="700" height="700" fill="#0a0a0a"/>

  <!-- TOP RIBBON · spec-line -->
  <rect x="0" y="0" width="700" height="58" fill="#0e0e0e"/>
  <text x="32" y="26" fill="#F32740" font-family="JetBrains Mono, monospace" font-size="11" font-weight="700" letter-spacing="2">LWRL WAYMARK · LWRL2 · 30WW · 4000K</text>
  <text x="32" y="46" fill="rgba(127,201,152,0.85)" font-family="JetBrains Mono, monospace" font-size="9.5" letter-spacing="0.5">MEASURED · LM-79 EVERFINE GO-2000B · 2023-09-26 · LM-63 PARSED</text>

  <!-- 5 concentric ring grids (cyan · dashed) -->
  <g stroke="#3FA9F5" stroke-width="0.8" fill="none" stroke-dasharray="2 4" opacity="0.5">
    <circle cx="350" cy="360" r="250"/>
    <circle cx="350" cy="360" r="200"/>
    <circle cx="350" cy="360" r="150"/>
    <circle cx="350" cy="360" r="100"/>
    <circle cx="350" cy="360" r="50"/>
  </g>

  <!-- Ring candela labels (left side) -->
  <g fill="rgba(63,169,245,0.75)" font-family="JetBrains Mono, monospace" font-size="9" text-anchor="end">
    <text x="96" y="364">1.5k cd</text>
    <text x="146" y="364">1.2k cd</text>
    <text x="196" y="364">900 cd</text>
    <text x="246" y="364">600 cd</text>
    <text x="296" y="364">300 cd</text>
  </g>

  <!-- Cardinal cross hairs -->
  <g stroke="rgba(255,255,255,0.18)" stroke-width="1">
    <line x1="350" y1="104" x2="350" y2="616"/>
    <line x1="94" y1="360" x2="606" y2="360"/>
  </g>

  <!-- Angle labels: 0° (up), 90° (right + left), 180° (down) -->
  <g fill="rgba(255,255,255,0.5)" font-family="JetBrains Mono, monospace" font-size="9" text-anchor="middle">
    <text x="350" y="98">0°</text>
    <text x="618" y="364">90°</text>
    <text x="82" y="364">90°</text>
    <text x="350" y="628">180°</text>
  </g>

  <!-- C90/270 curve (BLUE dashed · across-axis · linear ambient asymmetry indicator) -->
  <path d="M 350.0 553.7 L 353.4 553.6 L 356.8 553.3 L 360.1 552.9 L 363.4 552.3 L 366.8 551.6 L 370.0 550.7 L 373.3 549.7 L 376.5 548.6 L 379.7 547.3 L 382.8 545.9 L 385.8 544.3 L 388.8 542.6 L 391.8 540.9 L 394.6 538.9 L 397.4 536.8 L 400.1 534.7 L 402.7 532.3 L 405.2 529.9 L 407.7 527.5 L 410.0 524.9 L 412.2 522.1 L 414.4 519.3 L 416.4 516.4 L 418.3 513.4 L 420.1 510.4 L 421.8 507.3 L 423.5 504.2 L 425.0 501.0 L 426.3 497.7 L 427.5 494.3 L 428.7 490.9 L 429.7 487.5 L 430.6 484.1 L 431.3 480.6 L 432.0 477.1 L 432.5 473.6 L 432.9 470.1 L 433.2 466.6 L 433.4 463.0 L 433.5 459.5 L 433.4 456.0 L 433.2 452.5 L 433.0 449.0 L 432.6 445.5 L 432.0 442.0 L 431.4 438.6 L 430.7 435.2 L 429.8 431.9 L 428.9 428.6 L 427.9 425.4 L 426.8 422.2 L 425.5 419.0 L 424.2 415.9 L 422.7 412.8 L 421.2 409.9 L 419.6 406.9 L 417.9 404.1 L 416.1 401.3 L 414.3 398.6 L 412.3 396.0 L 410.3 393.4 L 408.3 391.0 L 406.2 388.6 L 403.7 386.2 L 401.2 383.9 L 398.9 381.8 L 396.5 379.8 L 394.1 377.8 L 391.7 376.0 L 389.2 374.3 L 386.6 372.6 L 384.1 371.1 L 381.5 369.6 L 379.0 368.3 L 376.4 367.1 L 373.8 365.9 L 371.3 364.9 L 368.8 364.0 L 366.4 363.2 L 364.0 362.5 L 361.8 361.9 L 359.6 361.4 L 357.7 360.9 L 355.8 360.6 L 354.2 360.4 L 352.9 360.2 L 351.8 360.1 L 351.0 360.0 L 350.5 360.0 L 350.3 360.0 L 350.2 360.0 L 350.2 360.0 L 350.2 360.0 L 350.2 360.0 L 350.2 360.0 L 349.8 360.0 L 349.8 360.0 L 349.8 360.0 L 349.8 360.0 L 349.7 360.0 L 349.6 360.0 L 349.2 360.0 L 348.5 360.1 L 347.5 360.1 L 346.2 360.3 L 344.7 360.5 L 342.9 360.7 L 341.0 361.1 L 338.8 361.6 L 336.6 362.1 L 334.3 362.8 L 331.9 363.5 L 329.4 364.4 L 326.9 365.3 L 324.3 366.4 L 321.8 367.6 L 318.9 368.9 L 316.3 370.3 L 313.7 371.8 L 311.2 373.4 L 308.6 375.1 L 306.1 376.9 L 303.6 378.7 L 301.2 380.7 L 298.8 382.8 L 296.5 385.0 L 294.1 387.2 L 292.0 389.6 L 289.9 392.0 L 287.8 394.5 L 285.7 397.1 L 283.8 399.8 L 282.0 402.5 L 280.2 405.3 L 278.5 408.2 L 277.0 411.1 L 275.4 414.2 L 274.1 417.2 L 272.7 420.4 L 271.5 423.6 L 270.4 426.8 L 269.4 430.1 L 268.4 433.5 L 267.7 436.8 L 266.9 440.2 L 266.4 443.6 L 265.8 447.2 L 265.5 450.6 L 265.2 454.1 L 265.1 457.7 L 265.1 461.2 L 265.2 464.8 L 265.4 468.3 L 265.7 471.8 L 266.1 475.4 L 266.7 478.9 L 267.4 482.4 L 268.3 485.9 L 269.2 489.3 L 270.3 492.7 L 271.5 496.0 L 272.7 499.4 L 274.1 502.7 L 275.7 505.9 L 277.3 509.0 L 279.1 512.1 L 280.9 515.2 L 282.9 518.0 L 285.0 520.9 L 287.2 523.6 L 289.5 526.3 L 291.8 528.9 L 294.3 531.4 L 296.9 533.7 L 299.6 535.9 L 302.3 538.0 L 305.1 540.0 L 308.0 541.8 L 311.0 543.7 L 314.0 545.3 L 317.1 546.8 L 320.2 548.1 L 323.4 549.3 L 326.6 550.4 L 329.9 551.3 L 333.2 552.1 L 336.5 552.7 L 339.9 553.1 L 343.2 553.5 L 346.6 553.7 L 350.0 553.7 Z" fill="rgba(63,169,245,0.12)" stroke="#3FA9F5" stroke-width="1.8" stroke-dasharray="4 3" stroke-linejoin="round" opacity="0.85"/>

  <!-- C0/180 curve (RED filled · long-axis · main throw direction) -->
  <path d="M 350.0 554.3 L 353.4 553.8 L 356.7 553.1 L 360.1 552.4 L 363.4 551.4 L 366.7 550.5 L 369.9 549.2 L 373.1 547.9 L 376.2 546.4 L 379.3 545.0 L 382.3 543.3 L 385.3 541.5 L 388.2 539.6 L 391.0 537.7 L 393.8 535.5 L 396.4 533.3 L 399.1 531.2 L 401.6 528.7 L 404.0 526.3 L 406.4 523.8 L 408.7 521.2 L 410.8 518.5 L 412.9 515.7 L 414.9 512.8 L 416.8 510.0 L 418.6 507.0 L 420.3 504.0 L 421.8 501.0 L 423.3 497.9 L 424.7 494.7 L 426.0 491.6 L 427.1 488.3 L 428.2 485.1 L 429.1 481.9 L 430.0 478.6 L 430.7 475.3 L 431.3 471.9 L 431.8 468.6 L 432.2 465.3 L 432.6 462.0 L 432.8 458.6 L 432.9 455.3 L 432.8 452.0 L 432.8 448.7 L 432.5 445.5 L 432.2 442.2 L 431.8 439.0 L 431.3 435.9 L 430.7 432.7 L 430.0 429.6 L 429.3 426.5 L 428.4 423.5 L 427.5 420.6 L 426.5 417.6 L 425.4 414.8 L 424.2 412.0 L 423.1 409.3 L 421.8 406.6 L 420.5 404.0 L 419.1 401.5 L 417.6 399.0 L 416.1 396.7 L 414.6 394.3 L 413.0 392.1 L 411.4 389.9 L 409.7 387.9 L 408.1 385.8 L 406.3 383.9 L 404.6 382.1 L 402.9 380.3 L 401.2 378.6 L 399.4 377.0 L 397.7 375.5 L 396.0 374.1 L 394.3 372.7 L 392.7 371.4 L 391.1 370.2 L 389.4 369.1 L 387.9 368.1 L 386.4 367.1 L 384.9 366.1 L 383.4 365.3 L 382.0 364.5 L 380.4 363.7 L 379.1 363.1 L 377.8 362.4 L 376.6 361.9 L 375.4 361.3 L 374.3 360.8 L 373.2 360.4 L 372.2 360.0 L 371.2 359.6 L 370.2 359.3 L 369.3 359.0 L 368.5 358.7 L 367.7 358.5 L 318.3 357.2 L 316.8 357.7 L 315.2 358.2 L 313.6 358.7 L 311.9 359.3 L 310.2 360.0 L 308.4 360.7 L 306.6 361.5 L 304.7 362.4 L 302.8 363.3 L 300.9 364.3 L 298.9 365.4 L 296.9 366.5 L 294.9 367.7 L 292.8 369.1 L 290.5 370.5 L 288.2 372.0 L 286.1 373.6 L 284.1 375.2 L 282.0 377.0 L 279.9 378.8 L 277.8 380.7 L 275.8 382.7 L 273.9 384.7 L 271.9 386.9 L 270.0 389.1 L 268.1 391.4 L 266.3 393.8 L 264.6 396.3 L 262.9 398.8 L 261.2 401.4 L 259.6 404.1 L 258.1 406.8 L 256.6 409.7 L 255.2 412.5 L 253.9 415.5 L 252.7 418.5 L 251.5 421.5 L 250.5 424.6 L 249.5 427.8 L 248.7 430.9 L 247.9 434.2 L 247.2 437.5 L 246.7 440.7 L 246.2 444.1 L 245.8 447.4 L 245.5 450.8 L 245.4 454.1 L 245.4 457.6 L 245.5 461.0 L 245.6 464.4 L 245.9 467.8 L 246.3 471.2 L 246.8 474.6 L 247.5 478.0 L 248.2 481.3 L 249.1 484.6 L 250.0 488.0 L 251.1 491.2 L 252.3 494.5 L 253.6 497.7 L 255.0 500.9 L 256.5 504.0 L 258.1 507.1 L 259.8 510.1 L 261.7 513.0 L 263.6 515.9 L 265.6 518.7 L 267.8 521.3 L 270.0 524.1 L 272.3 526.6 L 274.7 529.1 L 277.2 531.4 L 279.8 533.7 L 282.5 535.9 L 285.2 538.0 L 288.0 539.9 L 290.9 541.8 L 293.9 543.6 L 296.9 545.3 L 300.0 546.8 L 303.1 548.3 L 306.3 549.4 L 309.5 550.6 L 312.8 551.6 L 316.0 552.6 L 319.4 553.3 L 322.7 554.0 L 326.1 554.5 L 329.5 554.9 L 332.9 555.1 L 336.3 555.3 L 339.8 555.2 L 343.2 555.0 L 346.6 554.7 L 350.0 554.3 Z" fill="rgba(243,39,64,0.20)" stroke="#F32740" stroke-width="2.4" stroke-linejoin="round"/>

  <!-- Legend -->
  <g font-family="JetBrains Mono, monospace" font-size="9">
    <rect x="540" y="76" width="18" height="3" fill="#F32740"/>
    <text x="562" y="80" fill="#fff">C0/180 (long axis)</text>
    <rect x="540" y="92" width="18" height="3" fill="#3FA9F5"/>
    <text x="562" y="96" fill="rgba(255,255,255,0.85)">C90/270 (across)</text>
  </g>

  <!-- BOTTOM RIBBON · stats -->
  <rect x="0" y="640" width="700" height="60" fill="#0e0e0e"/>
  <g font-family="JetBrains Mono, monospace" font-size="11" fill="#fff">
    <text x="32" y="664" fill="#F32740" font-weight="700">PEAK</text>
    <text x="32" y="682">1,176 cd</text>
    <text x="190" y="664" fill="#F32740" font-weight="700">LUMENS</text>
    <text x="190" y="682">3,630 lm</text>
    <text x="350" y="664" fill="#F32740" font-weight="700">EFFICACY</text>
    <text x="350" y="682">132.5 LM/W · 27.4W</text>
    <text x="540" y="664" fill="#F32740" font-weight="700">CRI</text>
    <text x="540" y="682">&gt;80 standard</text>
  </g>
</svg>
