<svg viewBox="0 0 320 280" xmlns="http://www.w3.org/2000/svg" aria-label="LM-79 measured polar distribution · LUNA 2FT · Diffuser · 100% UP · 2533 lumens · peak 962cd">
<text x="160" y="14" text-anchor="middle" fill="#F32740" font-family="JetBrains Mono, monospace" font-size="9" font-weight="700" letter-spacing="1.2">LUNA 2FT · DIFFUSER</text>
<text x="160" y="24" text-anchor="middle" fill="#fff" font-family="JetBrains Mono, monospace" font-size="8" font-weight="700" letter-spacing="0.8">100% UP</text>
<text x="160" y="34" text-anchor="middle" fill="rgba(255,255,255,0.55)" font-family="JetBrains Mono, monospace" font-size="7" letter-spacing="0.5">LM-79 MEASURED · 4000K</text>
<circle cx="160.0" cy="140.0" r="27.5" fill="none" stroke="rgba(255,255,255,0.18)" stroke-width="0.7"/><circle cx="160.0" cy="140.0" r="55.0" fill="none" stroke="rgba(255,255,255,0.18)" stroke-width="0.7"/><circle cx="160.0" cy="140.0" r="82.5" fill="none" stroke="rgba(255,255,255,0.18)" stroke-width="0.7"/><circle cx="160.0" cy="140.0" r="110.0" fill="none" stroke="rgba(255,255,255,0.18)" stroke-width="0.7"/>
<line x1="160.0" y1="252.0" x2="160.0" y2="258.0" stroke="rgba(255,255,255,0.35)" stroke-width="0.8"/><text x="160.0" y="268.5" text-anchor="middle" fill="rgba(255,255,255,0.5)" font-family="JetBrains Mono, monospace" font-size="7" letter-spacing="0.3">0°</text><line x1="104.0" y1="237.0" x2="101.0" y2="242.2" stroke="rgba(255,255,255,0.35)" stroke-width="0.8"/><text x="97.0" y="251.6" text-anchor="middle" fill="rgba(255,255,255,0.5)" font-family="JetBrains Mono, monospace" font-size="7" letter-spacing="0.3">30°</text><line x1="63.0" y1="196.0" x2="57.8" y2="199.0" stroke="rgba(255,255,255,0.35)" stroke-width="0.8"/><text x="50.9" y="205.5" text-anchor="middle" fill="rgba(255,255,255,0.5)" font-family="JetBrains Mono, monospace" font-size="7" letter-spacing="0.3">60°</text><line x1="48.0" y1="140.0" x2="42.0" y2="140.0" stroke="rgba(255,255,255,0.35)" stroke-width="0.8"/><text x="34.0" y="142.5" text-anchor="middle" fill="rgba(255,255,255,0.5)" font-family="JetBrains Mono, monospace" font-size="7" letter-spacing="0.3">90°</text><line x1="63.0" y1="84.0" x2="57.8" y2="81.0" stroke="rgba(255,255,255,0.35)" stroke-width="0.8"/><text x="50.9" y="79.5" text-anchor="middle" fill="rgba(255,255,255,0.5)" font-family="JetBrains Mono, monospace" font-size="7" letter-spacing="0.3">120°</text><line x1="104.0" y1="43.0" x2="101.0" y2="37.8" stroke="rgba(255,255,255,0.35)" stroke-width="0.8"/><text x="97.0" y="33.4" text-anchor="middle" fill="rgba(255,255,255,0.5)" font-family="JetBrains Mono, monospace" font-size="7" letter-spacing="0.3">150°</text><line x1="160.0" y1="28.0" x2="160.0" y2="22.0" stroke="rgba(255,255,255,0.35)" stroke-width="0.8"/><text x="160.0" y="16.5" text-anchor="middle" fill="rgba(255,255,255,0.5)" font-family="JetBrains Mono, monospace" font-size="7" letter-spacing="0.3">180°</text>
<polygon points="159.8,140.0 159.8,140.0 159.8,140.0 159.8,140.0 159.8,140.0 159.8,140.0 159.8,140.0 159.8,140.0 159.8,140.0 159.8,140.0 159.8,140.0 159.8,140.0 159.8,139.9 159.7,139.9 159.7,139.9 159.7,139.9 159.7,139.9 159.7,139.9 159.7,139.9 159.7,139.9 159.7,139.9 159.7,139.9 159.7,139.9 159.7,139.9 159.7,139.8 159.7,139.8 159.6,139.8 159.6,139.8 159.6,139.8 159.6,139.8 159.6,139.8 159.6,139.8 159.6,139.8 159.6,139.7 159.6,139.7 159.6,139.7 159.6,139.7 159.6,139.7 159.6,139.7 159.6,139.7 159.6,139.7 159.6,139.6 159.6,139.6 159.6,139.6 159.6,139.6 159.6,139.6 159.6,139.6 159.6,139.6 159.6,139.5 159.6,139.5 159.6,139.5 159.6,139.5 159.6,139.5 159.6,139.5 159.6,139.5 159.6,139.4 159.6,139.4 159.6,139.4 159.6,139.4 159.6,139.4 159.6,139.4 159.6,139.4 159.7,139.3 159.7,139.3 159.7,139.3 159.7,139.3 159.7,139.3 159.7,139.3 159.7,139.3 159.7,139.3 159.7,139.3 159.7,139.2 159.8,139.2 159.8,139.2 159.8,139.2 159.8,139.2 159.8,139.2 159.8,139.2 159.8,139.2 159.8,139.2 159.9,139.2 159.9,139.2 159.9,139.2 159.9,139.2 159.9,139.2 159.9,139.2 159.9,139.1 160.0,139.1 160.0,139.1 160.0,139.1 160.0,139.1 160.0,139.1 160.0,139.1 160.0,139.1 160.1,139.1 160.1,139.2 160.1,139.2 160.1,139.2 160.1,139.2 160.1,139.2 160.1,139.2 160.2,139.2 160.2,139.2 160.2,139.2 160.2,139.2 160.2,139.2 160.2,139.2 160.2,139.2 160.2,139.2 160.3,139.2 160.3,139.3 160.3,139.3 160.3,139.3 160.3,139.3 160.3,139.3 160.3,139.3 160.3,139.3 160.3,139.3 160.3,139.3 160.4,139.4 160.4,139.4 160.4,139.4 160.4,139.4 160.4,139.4 160.4,139.4 160.4,139.4 160.4,139.5 160.4,139.5 160.4,139.5 160.4,139.5 160.4,139.5 160.4,139.5 160.4,139.5 160.4,139.6 160.4,139.6 160.4,139.6 160.4,139.6 160.4,139.6 160.4,139.6 160.4,139.6 160.4,139.7 160.4,139.7 160.4,139.7 160.4,139.7 160.4,139.7 160.4,139.7 160.4,139.7 160.4,139.7 160.4,139.8 160.4,139.8 160.4,139.8 160.4,139.8 160.4,139.8 160.4,139.8 160.4,139.8 160.3,139.8 160.3,139.8 160.3,139.9 160.3,139.9 160.3,139.9 160.3,139.9 160.3,139.9 160.3,139.9 160.3,139.9 160.3,139.9 160.3,139.9 160.3,139.9 160.3,139.9 160.2,139.9 160.2,140.0 160.2,140.0 160.2,140.0 160.2,140.0 160.2,140.0 160.2,140.0 160.2,140.0 160.2,140.0 160.2,140.0 160.2,140.0 160.2,140.0 160.2,140.0" fill="#F32740" fill-opacity="0.18" stroke="#F32740" stroke-width="1.2" stroke-dasharray="3 2" stroke-linejoin="round"/>
<polygon points="160.0,202.8 158.9,202.8 157.8,202.8 156.7,202.6 155.6,202.5 154.6,202.3 153.5,202.0 152.4,201.7 151.4,201.4 150.3,201.0 149.3,200.6 148.3,200.1 147.3,199.6 146.4,199.0 145.4,198.5 144.5,197.8 143.6,197.1 142.7,196.4 141.9,195.7 141.1,194.9 140.3,194.1 139.6,193.3 138.8,192.4 138.1,191.5 137.5,190.5 136.9,189.6 136.3,188.6 135.7,187.6 135.2,186.6 134.7,185.6 134.3,184.5 133.9,183.4 133.6,182.3 133.2,181.2 133.0,180.1 132.8,178.9 132.5,177.8 132.4,176.6 132.3,175.5 132.2,174.3 132.2,173.1 132.2,172.0 132.3,170.8 132.4,169.6 132.5,168.4 132.7,167.3 132.9,166.2 133.2,165.0 133.5,163.9 133.8,162.8 134.1,161.7 134.5,160.6 134.9,159.6 135.5,158.5 136.1,157.4 136.6,156.4 137.1,155.4 137.7,154.5 138.3,153.6 138.9,152.7 139.6,151.8 140.3,150.9 141.0,150.1 141.7,149.3 142.4,148.6 143.2,147.9 143.9,147.2 144.7,146.5 145.5,145.9 146.3,145.3 147.1,144.7 147.9,144.2 148.7,143.7 149.5,143.2 150.3,142.8 151.1,142.4 151.9,142.0 152.7,141.7 153.5,141.4 154.2,141.1 155.0,140.9 155.7,140.7 156.4,140.5 157.0,140.4 157.6,140.2 158.2,140.2 158.7,140.1 159.1,140.0 159.5,140.0 159.7,140.0 159.8,140.0 160.2,140.0 160.3,140.0 160.5,140.0 160.9,140.0 161.3,140.1 161.8,140.2 162.4,140.2 163.0,140.4 163.6,140.5 164.3,140.7 165.0,140.9 165.8,141.1 166.5,141.4 167.3,141.7 168.1,142.0 168.9,142.4 169.7,142.8 170.5,143.2 171.3,143.7 172.1,144.2 172.9,144.7 173.7,145.3 174.5,145.9 175.3,146.5 176.1,147.2 176.8,147.9 177.6,148.6 178.3,149.3 179.0,150.1 179.7,150.9 180.4,151.8 181.1,152.7 181.7,153.6 182.3,154.5 182.9,155.4 183.4,156.4 183.9,157.4 184.5,158.5 185.1,159.6 185.5,160.6 185.9,161.7 186.2,162.8 186.5,163.9 186.8,165.0 187.1,166.2 187.3,167.3 187.5,168.4 187.6,169.6 187.7,170.8 187.8,172.0 187.8,173.1 187.8,174.3 187.7,175.5 187.6,176.6 187.5,177.8 187.2,178.9 187.0,180.1 186.8,181.2 186.4,182.3 186.1,183.4 185.7,184.5 185.3,185.6 184.8,186.6 184.3,187.6 183.7,188.6 183.1,189.6 182.5,190.5 181.9,191.5 181.2,192.4 180.4,193.3 179.7,194.1 178.9,194.9 178.1,195.7 177.3,196.4 176.4,197.1 175.5,197.8 174.6,198.5 173.6,199.0 172.7,199.6 171.7,200.1 170.7,200.6 169.7,201.0 168.6,201.4 167.6,201.7 166.5,202.0 165.4,202.3 164.4,202.5 163.3,202.6 162.2,202.8 161.1,202.8" fill="#F32740" fill-opacity="0.55" stroke="#F32740" stroke-width="1.4" stroke-linejoin="round"/>
<line x1="128.0" y1="140.0" x2="192.0" y2="140.0" stroke="rgba(255,255,255,0.7)" stroke-width="1.6"/><line x1="160.0" y1="137.5" x2="160.0" y2="142.5" stroke="rgba(255,255,255,0.5)" stroke-width="0.8"/><text x="160.0" y="134.0" text-anchor="middle" fill="rgba(255,255,255,0.5)" font-family="JetBrains Mono, monospace" font-size="6.5" letter-spacing="0.6">FIXTURE</text>
<text x="160" y="266" text-anchor="middle" fill="#fff" font-family="JetBrains Mono, monospace" font-size="9" font-weight="700">2,533 lm  ·  20W  ·  Peak: 962 cd</text>
</svg>